<?xml version="1.0" encoding="utf-8"?><svg viewBox="0 0 225 65" xmlns="http://www.w3.org/2000/svg" xmlns:xlink="http://www.w3.org/1999/xlink"><style>:root>svg{display:none}:root>svg:target{display:block}</style><svg fill="none" viewBox="0 0 41 16" id="arrow" xmlns="http://www.w3.org/2000/svg"><path d="M40.707 8.707a1 1 0 000-1.414L34.343.929a1 1 0 10-1.414 1.414L38.586 8l-5.657 5.657a1 1 0 001.414 1.414l6.364-6.364zM0 9h40V7H0v2z" fill="#fff"/></svg><svg fill="none" viewBox="0 0 225 65" id="ellipse" xmlns="http://www.w3.org/2000/svg"><ellipse cx="112.029" cy="32.5" rx="112.029" ry="32.5" fill="#fff"/></svg><svg fill="none" viewBox="0 0 60 59" id="fb" xmlns="http://www.w3.org/2000/svg"><path d="M29.928.117C13.856.117.706 13.291.706 29.516c0 14.67 10.695 26.845 24.663 29.046V38.024h-7.422v-8.509h7.422v-6.483c0-7.365 4.354-11.414 11.046-11.414 3.185 0 6.517.558 6.517.558v7.247H39.25c-3.624 0-4.764 2.259-4.764 4.577v5.515h8.124l-1.315 8.509h-6.809v20.538a29.193 29.193 0 0017.68-9.946 29.41 29.41 0 006.984-19.1C59.15 13.29 46 .116 29.928.116z" fill="#CACACA"/></svg><svg fill="none" viewBox="0 0 60 59" id="instagram" xmlns="http://www.w3.org/2000/svg"><g clip-path="url(#dclip0_8_20)" fill="#CACACA"><path d="M24.482 29.222a5.593 5.593 0 1011.186 0 5.593 5.593 0 00-11.186 0z"/><path d="M16.994 19.326a5.2 5.2 0 011.255-1.93 5.195 5.195 0 011.93-1.255c.59-.23 1.48-.503 3.115-.577 1.77-.08 2.3-.098 6.78-.098 4.482 0 5.012.017 6.782.098 1.636.074 2.524.348 3.115.577a5.191 5.191 0 011.93 1.256c.557.54.986 1.2 1.255 1.929.23.591.503 1.48.578 3.116.08 1.77.098 2.3.098 6.78 0 4.481-.018 5.012-.098 6.781-.075 1.636-.348 2.525-.578 3.116a5.201 5.201 0 01-1.255 1.93c-.541.557-1.2.986-1.93 1.255-.59.23-1.48.503-3.115.577-1.77.081-2.3.098-6.78.098-4.482 0-5.013-.017-6.781-.098-1.636-.074-2.525-.348-3.116-.578a5.557 5.557 0 01-3.185-3.184c-.23-.591-.503-1.48-.578-3.116-.08-1.77-.098-2.3-.098-6.78 0-4.481.017-5.012.098-6.781.075-1.636.348-2.525.578-3.116zm13.08 18.513a8.617 8.617 0 100-17.233 8.616 8.616 0 100 17.233zm-8.956-15.56a2.014 2.014 0 100-4.028 2.014 2.014 0 000 4.028z"/><path d="M30.075 0c16.137 0 29.222 13.086 29.222 29.222 0 16.137-13.085 29.223-29.222 29.223S.853 45.359.853 29.222C.853 13.086 13.938 0 30.075 0zM13.396 36.14c.081 1.787.365 3.006.78 4.074a8.58 8.58 0 004.908 4.907c1.067.415 2.287.698 4.072.78 1.79.082 2.361.101 6.919.101 4.557 0 5.128-.02 6.918-.1 1.786-.083 3.006-.366 4.073-.78a8.221 8.221 0 002.972-1.937 8.223 8.223 0 001.935-2.971c.415-1.067.7-2.287.78-4.073.083-1.79.102-2.362.102-6.919 0-4.557-.02-5.128-.101-6.918-.081-1.786-.365-3.006-.78-4.073a8.221 8.221 0 00-1.936-2.972 8.219 8.219 0 00-2.972-1.936c-1.067-.414-2.287-.698-4.073-.78-1.79-.081-2.361-.1-6.918-.1s-5.129.019-6.918.101c-1.786.081-3.006.365-4.073.779a8.226 8.226 0 00-2.973 1.936 8.221 8.221 0 00-1.935 2.972c-.415 1.067-.699 2.287-.78 4.073-.082 1.79-.101 2.361-.101 6.918s.02 5.129.101 6.918z"/></g><defs><clipPath id="dclip0_8_20"><path fill="#fff" transform="matrix(-1 0 0 1 59.297 0)" d="M0 0h58.445v58.445H0z"/></clipPath></defs></svg><svg fill="none" viewBox="0 0 59 59" id="vk" xmlns="http://www.w3.org/2000/svg"><path d="M29.222 0C13.084 0 0 13.083 0 29.222c0 16.14 13.084 29.223 29.222 29.223 16.139 0 29.223-13.084 29.223-29.223S45.36 0 29.222 0zm14.823 32.383c1.362 1.33 2.803 2.582 4.026 4.05.542.65 1.052 1.32 1.441 2.076.555 1.077.054 2.258-.91 2.322l-5.987-.002c-1.546.128-2.776-.495-3.814-1.553-.828-.842-1.596-1.742-2.394-2.613-.326-.357-.669-.694-1.078-.959-.816-.53-1.525-.368-1.993.484-.476.868-.585 1.83-.63 2.795-.066 1.412-.491 1.78-1.908 1.847-3.026.142-5.898-.318-8.567-1.843-2.355-1.346-4.177-3.246-5.765-5.397-3.092-4.192-5.46-8.793-7.588-13.527-.48-1.066-.129-1.636 1.047-1.659 1.954-.037 3.908-.032 5.862-.001.795.012 1.321.467 1.627 1.218 1.056 2.598 2.35 5.07 3.972 7.362.433.61.874 1.219 1.502 1.65.694.476 1.222.318 1.55-.456.209-.492.299-1.018.344-1.545.156-1.807.174-3.612-.095-5.411-.167-1.126-.8-1.853-1.923-2.066-.571-.108-.488-.32-.21-.646.483-.565.935-.914 1.838-.914l6.765-.001c1.065.209 1.305.687 1.45 1.761l.005 7.517c-.012.416.209 1.647.955 1.92.598.196.993-.283 1.35-.662 1.622-1.72 2.778-3.752 3.813-5.855.457-.928.85-1.887 1.234-2.849.284-.71.727-1.06 1.529-1.048l6.514.007c.191 0 .386.002.576.035 1.098.188 1.399.66 1.06 1.731-.535 1.683-1.574 3.084-2.589 4.489-1.088 1.504-2.249 2.956-3.326 4.467-.99 1.381-.912 2.076.317 3.276z" fill="#CACACA"/></svg></svg>